<?xml version="1.0" encoding="UTF-8" standalone="no"?>
<svg
   version="1.1"
   id="Layer_1"
   x="0px"
   y="0px"
   viewBox="0 0 1617.2061 1617.206"
   enable-background="new 0 0 1177.594 1617.206"
   xml:space="preserve"
   sodipodi:docname="safari-pinned-tab.svg"
   width="1617.2061"
   height="1617.2061"
   inkscape:version="1.1.2 (0a00cf5339, 2022-02-04)"
   inkscape:export-filename="/home/daniel/git/asocial-app/public/icons/icon-512x512.png"
   inkscape:export-xdpi="30.389999"
   inkscape:export-ydpi="30.389999"
   xmlns:inkscape="http://www.inkscape.org/namespaces/inkscape"
   xmlns:sodipodi="http://sodipodi.sourceforge.net/DTD/sodipodi-0.dtd"
   xmlns="http://www.w3.org/2000/svg"
   xmlns:svg="http://www.w3.org/2000/svg"><defs
   id="defs1227" /><sodipodi:namedview
   id="namedview1225"
   pagecolor="#ffffff"
   bordercolor="#666666"
   borderopacity="1.0"
   inkscape:pageshadow="2"
   inkscape:pageopacity="0.0"
   inkscape:pagecheckerboard="0"
   showgrid="false"
   inkscape:zoom="0.49529868"
   inkscape:cx="823.74538"
   inkscape:cy="808.603"
   inkscape:window-width="1868"
   inkscape:window-height="1016"
   inkscape:window-x="0"
   inkscape:window-y="0"
   inkscape:window-maximized="1"
   inkscape:current-layer="Layer_1" />
<g
   id="g1222"
   transform="translate(226.59938,0.11829983)">
	<path
   d="m 635.716,1604.91 c -23.622,6.883 -42.734,1.76 -58.047,-17.821 -5.357,-6.851 -37.873,-2.604 -42.568,5.626 -7.299,12.792 -19.17,12.346 -29.999,10.489 C 408.274,1586.6 379.674,1512.231 350.697,1472.842 289.606,1389.801 210.297,1275.951 151.902,1156.333 99.529,1049.062 75.422,1024.192 46.76,913.417 30.958,852.346 29.125,861.238 37.095,824.422 40.497,808.705 41.696,790.857 35.165,774.872 17.75,732.253 23.01,683.308 24.304,638.421 30.773,414.012 50.983,309.947 74.239,224.295 86.648,178.593 116.203,136.7 150.83,104.448 249.31,12.724 562.727,2.107 693.492,9.878 c 62.046,3.687 122.838,14.444 183.515,25.648 38.44,7.098 75.409,20.734 111.249,38.039 128.515,62.051 128.674,208.305 148.301,330.106 9.372,58.156 6.574,117.701 6.599,176.383 0.079,182.874 2.056,242.423 -23.631,271.576 -14.593,16.563 -14.807,42.181 -18.336,62.856 -9.47,55.495 -13.1,117.536 -81.03,231.526 -18.512,31.064 -39.46,60.526 -59.131,90.814 -128.739,198.22 -197.726,341.098 -325.312,368.084 z m 187.24,-689.606 c 1.651,2.889 156.074,25.454 202.463,-10.742 16.552,-12.915 32.072,-27.506 49.871,-38.366 63.013,-38.448 49.563,-209.071 48.588,-265.974 -3.004,-175.273 -25.013,-294.548 -29.243,-323.871 -12.512,-86.72 -71.02,-173.12 -157.584,-199.105 C 786.064,31.923 662.89,30.084 554.745,32.969 520.921,33.871 409.134,43.533 373.89,48.774 135.422,84.235 65.042,145.737 48.871,614.115 c -1.474,42.681 -8.599,92.783 3.609,134.328 2.546,8.665 1.933,18.609 6.703,26.529 4.509,7.487 13.058,11.302 18.261,18.219 17.829,23.702 7.761,68.285 84.92,104.124 36.368,16.893 121.194,0.824 183.308,-4.714 1.357,-0.121 13.569,1.274 13.313,1.684 -8.205,13.124 -27.064,14.978 -41.34,16.982 -62.024,8.706 -59.379,9.523 -107.015,7.48 4.971,37.983 43.064,82.633 78.083,105.983 20.467,13.647 44.092,20.915 66.705,30.158 34.616,14.151 68.501,27.366 104.538,1.563 21.329,-15.272 24.463,-36.583 4.014,-52.8 -5.014,-3.977 -8.56,-8.296 -7.697,-15.025 8.326,-64.91 12.54,-69.401 -2.626,-82.044 -6.161,-5.125 -21.323,19.792 -24.772,23.9 -9.899,11.792 -15.411,27.279 -14.908,42.69 0.182,5.586 -2.499,16.615 -11.121,10.541 -11.498,-8.1 -21.5,-17.872 -25.287,-32.082 -10.448,-39.195 7.805,-68.05 26.124,-73.743 25.532,-7.934 43.484,-23.196 48.732,-49.016 13.381,-65.829 50.148,-220.632 20.138,-275.805 -16.697,-30.698 -31.844,-56.869 -57.037,-81.481 -86.732,-84.728 -107.236,-60.442 -157.574,-92.897 42.9,-30.763 127.21,22.071 169.446,58.298 65.42,56.112 126.858,97.29 113.633,258.55 -5.018,61.182 -7.349,122.703 -13.676,183.812 -5.328,51.451 -31.701,108.369 -23.131,148.093 6.291,29.157 90.47,46.476 122.302,19.374 24.564,-20.914 28.09,-20.274 45.551,7.831 25.722,41.402 73.626,37.91 120.125,22.896 12.885,-4.161 26.597,-7.35 37.993,-14.206 24.581,-14.786 47.604,-31.997 65.887,-54.669 27.541,-34.153 55.339,-60.103 28.637,-64.907 -15.681,-2.821 -31.84,-1.587 -47.652,-4.057 -18.101,-2.826 -43.985,-6.703 -54.101,-24.4 z m -226.735,192.937 c -6.413,-7.33 -13.415,-15.035 -22.85,-17.453 -43.62,-11.177 -46.985,72.108 -100.716,71.189 -75.385,-1.289 -191.303,-52.065 -230.229,-92.897 -27.351,-28.69 -33.384,-60.018 -63.937,-115.239 -5.729,-10.354 -10.789,-22.93 -17.919,-32.282 -6.471,-8.488 -15.766,-11.437 -13.903,2.409 12.656,94.064 85.186,166.593 150.309,229.329 28.009,26.982 76.848,89.746 214.905,106.637 31.19,3.816 62.728,3.875 94.002,-0.418 16.024,-2.2 25.49,19.007 42.706,11.2 -0.706,8.002 -10.152,16.764 -19.804,29.216 -11.548,14.899 -18.565,43.329 -14.191,62.143 7.844,33.742 26.847,49.679 7.346,117.458 -14.038,48.791 -40.182,115.808 9.322,102.594 99.329,-26.512 135.624,-96.181 225.184,-222.81 20.943,-29.611 101.252,-162.049 101.935,-163.073 22.784,-34.12 45.978,-68.25 62.851,-105.924 15.16,-33.849 32.923,-66.484 43.993,-102.239 10.749,-34.718 10.364,-71.536 21.885,-105.968 0.868,-2.595 -18.902,-7.036 -27.329,11.035 -16.604,35.604 -25.152,74.053 -41.775,110.042 -38.337,82.996 -191.845,298.513 -209.414,333.461 -1.841,3.662 -4.992,7.975 -10.505,7.545 -7.593,-0.592 56.211,-87.118 69.802,-119.55 19.319,-46.101 50.056,-74.191 35.971,-86.43 -7.952,-6.889 -23.928,18.608 -31.648,18.615 -0.174,-0.974 -0.227,-3.042 0.606,-3.788 32.904,-29.496 94.809,-92.736 111.536,-125.718 44.163,-87.082 20.197,-103.493 6.187,-82.464 -88.049,132.161 -113.65,218.645 -316.134,228.426 -21.088,1.019 -41.396,10.934 -61.619,10.638 -36.601,-0.537 -73.574,-3.098 -109.54,-11.896 -2.205,-0.539 -3.935,-3.016 -5.887,-4.592 1.965,-1.082 3.957,-3.152 5.892,-3.101 120.412,3.208 126.792,8.797 132.621,2.467 7.698,-8.358 -3.688,-17.453 -39.653,-58.562 z M 55.206,842.134 c -11.004,4.871 13.432,60.082 16.169,68.321 22.897,68.916 10.65,44.093 38.576,104.381 41.027,88.573 133.96,269.515 221.455,386.755 48.711,65.272 83.293,152.103 168.464,176.218 55.943,15.839 -18.624,-99.063 0.428,-174.772 5.675,-22.55 20.994,-41.065 21.911,-65.764 1.004,-27.042 -4.758,-50.084 -25.151,-67.699 -10.115,-8.737 -18.028,-5.428 -55.766,-17.315 -41.754,-13.152 -94.403,-45.999 -95.451,-28.282 -4.548,76.91 -6.976,86.834 10.73,138.063 0.619,1.791 -0.4,4.715 -1.099,6.374 -15.111,1.676 -46,-92.129 -67.709,-134.646 C 217.482,1096.125 164.658,1033.724 127.711,964.933 97.448,908.588 89.199,827.086 55.206,842.134 Z"
   id="path1208" />
	<path
   d="m 257.612,546.481 c 67.603,-14.477 145.595,13.516 195.873,60.874 20.117,18.949 3.138,39.166 -14.471,45.209 -41.316,14.18 -157.572,5.268 -222.673,11.178 -71.472,6.489 -49.112,7.049 -78.569,14.237 -0.282,-2.893 -1.074,-5.84 -0.772,-8.67 8.185,-76.522 35.845,-104.675 120.612,-122.828 z"
   id="path1210" />
	<path
   d="m 950.286,664.078 c -136.941,-13.306 -193.816,17.871 -212.16,-23.062 -11.149,-24.879 13.573,-37.596 31.664,-49.335 28.03,-18.19 60.855,-33.27 94.308,-37.284 54.223,-6.506 144.176,15.659 160.97,63.225 8.93,25.294 -6.277,41.953 -31.211,46.759 -14.315,2.758 -29.06,1.107 -43.571,-0.303 z"
   id="path1212" />
	<path
   d="m 377.668,322.296 c 70.086,18.123 126,68.003 138.07,85.363 20.828,29.954 11.564,106.164 -42.842,53.563 -66.255,-64.058 -121.745,-106.974 -214.36,-107.148 -64.46,-0.121 -99.488,43.293 -113.727,53.43 -30.84,21.957 51.593,-132.081 232.859,-85.208 z"
   id="path1214" />
	<path
   d="m 675.454,451.707 c -4.536,-50.091 53.532,-80.803 92.547,-99.238 49.341,-23.314 103.841,-31.848 158.062,-27.682 80.097,6.156 123.863,93.592 119.289,98.932 -4.71,5.498 -14.971,-15.084 -17.656,-18.395 -53.471,-65.942 -165.021,-41.814 -225.354,1.395 -17.665,12.651 -35.411,25.215 -52.479,38.67 -11.824,9.321 -33.289,36.911 -50.232,33.809 -12.77,-2.337 -22.674,-10.887 -24.177,-27.491 z"
   id="path1216" />
	<path
   d="M 682.387,564.943 C 681.797,505.799 760.426,450.573 809.064,418.338 877,373.312 941.9,380.725 940.502,391.713 c -2.976,23.348 -49.479,23.963 -66.106,29.739 -37.419,13 -63.349,38.468 -92.509,63.809 -31.799,27.634 -80.256,62.463 -86.755,81.012 -1.368,3.905 -4.066,8.071 -8.877,5.499 -2.324,-1.242 -3.104,-5.372 -3.868,-6.829 z"
   id="path1218" />
	<path
   d="m 750.481,960.615 c 3.236,-3.537 -5.7,-33.147 -19.996,-49.495 -8.824,-10.091 -18.096,-11.936 -29.463,-17.242 -5.675,-2.65 -7.973,-8.62 -4.009,-13.788 3.542,-4.618 7.299,-3.617 12.514,-1.318 19.022,8.387 34.484,20.295 42.076,40.136 5.319,13.899 11.119,28.328 -1.122,41.707 z"
   id="path1220" />
</g>
</svg>
